<svg id="Capa_1" enable-background="new 0 0 512 512" height="512" viewBox="0 0 512 512" width="512" xmlns="http://www.w3.org/2000/svg">
	<g fill="#fff">
		<g>
			<path d="m232.405 193.532h47.468v47.468h-47.468z" />
			<path d="m309.873 193.532h47.468v47.468h-47.468z" />
			<path d="m309.873 116.064h47.468v47.468h-47.468z" />
			<path d="m387.341 193.532h47.468v47.468h-47.468z" />
			<path d="m77.468 116.064h47.468v47.468h-47.468z" />
			<path d="m154.936 116.064h47.468v47.468h-47.468z" />
			<path d="m154.936 193.532h47.468v47.468h-47.468z" />
			<path d="m77.468 193.532h47.468v47.468h-47.468z" />
			<path d="m0 116.064h47.468v47.468h-47.468z" />
			<path d="m464.809 193.532h47.191v47.468h-47.191z" />
			<path d="m309.873 271h47.468v47.468h-47.468z" />
			<path d="m464.809 116.064h47.191v47.468h-47.191z" />
			<path d="m387.341 271h47.468v47.468h-47.468z" />
			<path d="m387.341 116.064h47.468v47.468h-47.468z" />
			<path d="m77.468 38.595h47.468v47.468h-47.468z" />
			<path d="m77.468 271h47.468v47.468h-47.468z" />
			<path d="m0 193.532h47.468v47.468h-47.468z" />
			<path d="m232.405 271h47.468v47.468h-47.468z" />
			<path d="m387.341 38.595h47.468v47.468h-47.468z" />
			<path d="m154.936 271h47.468v47.468h-47.468z" />
		</g>
		<path d="m232.405 348.468h47.468v47.468h-47.468z" />
		<path d="m154.936 348.468h47.468v47.468h-47.468z" />
		<path d="m309.873 348.468h47.468v47.468h-47.468z" />
		<path d="m232.405 425.936h47.468v47.468h-47.468z" />
	</g>
</svg>
